<?xml version="1.0" encoding="utf-8"?>
<!-- Generator: Adobe Illustrator 28.1.0, SVG Export Plug-In . SVG Version: 6.00 Build 0)  -->
<svg version="1.1" id="Layer_1" xmlns="http://www.w3.org/2000/svg" xmlns:xlink="http://www.w3.org/1999/xlink" x="0px" y="0px"
	 viewBox="0 0 1945.4 173.1" style="enable-background:new 0 0 1945.4 173.1;" xml:space="preserve">
<style type="text/css">
	.st0{fill-rule:evenodd;clip-rule:evenodd;fill:#FEE23E;}
</style>
<g>
	<g>
		<path class="st0" d="M1093.1,17.8c-3.8-4-8.8-6.8-13.7-9.1c-4.9-2.3-10.4-3.4-16.4-3.4L864,5.4l0,42.5l194.5,0L888.7,86.4
			c-9.3,2.3-17,6.2-23,13.6c-5.5,7.4-8.8,16.4-9.3,26.6c0,6.2,1.6,12.5,4.4,18.1c2.7,5.7,6,10.8,11,14.7c4.4,4,9.9,6.8,15.9,9.1
			c5.5,2.3,12.1,3.4,18.1,3.4l191.3,0v-44.2l-186.9,0l161.1-36.3c10.4-2.3,18.1-7.4,24.7-14.7c6-7.4,9.3-15.9,9.3-26.6
			c0.5-6.2-0.5-12.5-2.7-17.6C1100.2,26.9,1097,21.8,1093.1,17.8z"/>
	</g>
	<g>
		<path class="st0" d="M638,7.6c-6,2.2-11.5,5.2-17.5,11c-5.9,5.6-9.9,11-12.6,17c-2.7,6-3.8,13.1-3.8,20.8l-0.5,58.6
			c0,6.6,1,12.7,3,17.7c2.1,5.3,5.7,12.2,10.2,17.4c4.1,4.7,7.8,8.6,12.1,11.5c3.9,2.6,8.8,5.5,13.7,7.1c4.9,1.1,10.4,2.2,16.4,2.2
			L826,172l0-47.7l-180.9,0v-17l181.4-0.5l0-41.7l-181.9,0V45.9l181.9,0l0.5-41.1l-166.6,0C651.7,4.8,644.6,5.9,638,7.6z"/>
	</g>
	<g>
		<polygon class="st0" points="0,47.6 92.6,47.6 92.6,172 132.6,172 133.2,47 224.1,47 224.7,4.8 0.5,4.8 		"/>
	</g>
	<g>
		<path class="st0" d="M556,13.6c-6-5.5-17-8.2-24.7-7.7c-9.3,0-18.6,3.3-25.2,8.2c-6.6,5.5-9.9,15.3-13.7,24.7l-38.9,94.3
			l-36.7-89.9c-4.4-10.4-8.8-20.3-16.4-26.9c-7.7-6-18.6-11-30.1-10.4c-6.6,0-13.7,3.8-19.2,7.7c-5.5,4.4-9.3,9.3-11.5,15.3
			c-2.7,6-3.8,13.2-3.8,19.7L335.6,172h38.5L374,53l36.7,82.2c5.5,11.5,11.5,20.8,18.6,28c7.1,6.6,12.2,10.2,27.4,9.9
			c8.5-0.4,9.3-1.6,12.6-3.8c3.8-2.2,7.1-4.9,9.9-8.2c2.7-3.3,4.9-6.6,7.1-11c2.2-3.8,4.4-8.8,7.1-14.2l38.9-84.4L531.3,172l38.9,0
			l0.5-118.4c0-7.7-2.2-18.6-4.4-25.8C564.7,21.8,560.4,17.4,556,13.6z"/>
	</g>
	<g>
		<polygon class="st0" points="257.4,171.9 302.5,172 302.9,4.8 258.5,4.8 		"/>
	</g>
	<g>
		<path class="st0" d="M1571.7,126.5l-107.4-108c-4.9-4.9-10.4-8.8-15.9-11.5c-5.5-2.7-11-4.4-17-4.4c-5.5,0-11,1.1-15.9,3.8
			c-15.9,7.7-24.1,19.2-24.1,35.1l-1.1,130.4h40.6l0.5-125.5l107.4,106.9c10.4,10.4,21.4,15.9,33.4,15.9c6,0,12.6-1.6,18.1-4.9
			c14.8-7.7,21.9-21.4,21.9-40l0.5-119.5l-40.3,0L1571.7,126.5z"/>
	</g>
	<g>
		<polygon class="st0" points="1892.8,2.9 1902,2.9 1902,24.7 1905.7,24.7 1905.7,2.9 1915,2.9 1915,0 1892.8,0 		"/>
	</g>
	<g>
		<path class="st0" d="M1940.4,0l-6.7,17.2c-0.7,1.7-1.2,3.1-1.5,4c-0.3-0.8-0.7-2-1.3-3.7L1924.2,0l-5.6,0v24.7l3.6,0V3.7l8.1,21.1
			l3.3,0l8.1-20.7v20.7h3.6V0H1940.4z"/>
	</g>
	<g>
		<g>
			<path class="st0" d="M1346.6,25.1c-4.9-7.1-11-12.1-17-15.3c-6-3.3-13.1-4.9-21.4-4.9l-62.5,0l-54.8,0c-5.5,0-10.4,0.5-14.8,1.6
				c-4.4,0.5-8.2,2.2-12.1,3.8c-3.8,2.2-7.7,4.9-11.5,8.2c-6,4.9-10.4,10.4-13.7,15.3c-2.7,5.5-4.4,11.5-4.4,18.6l-0.6,68
				c0,4.9,0.6,9.3,1.1,13.2c0.5,3.8,2.2,7.7,3.8,11c1.6,3.3,4.4,7.1,7.1,10.4c5.5,6,11,10.4,17,13.2c6,2.7,13.1,3.8,21.4,3.8l61.4,0
				l60.8,0c4.4,0,9.3-0.5,13.2-1.6c4.4-1.1,8.2-2.7,11.5-4.9c3.8-1.6,7.1-4.9,11-8.8c4.9-4.9,8.8-9.9,11.5-15.3
				c2.2-5.5,3.3-11.5,3.8-18.1l0-66.9c0-6-0.5-12.1-2.2-16.4C1353.8,35,1350.5,30,1346.6,25.1z M1315.4,131.4l-69.6,0l-70.7,0
				l0.6-84.4l70.1,0l70.2,0L1315.4,131.4z"/>
		</g>
	</g>
	<g>
		<path class="st0" d="M1680,7.6c-6,2.2-11.5,5.2-17.5,11c-5.9,5.6-9.9,11-12.6,17c-2.7,6-3.8,13.1-3.8,20.8l-0.5,58.6
			c0,6.6,1,12.7,3,17.7c2.1,5.3,5.7,12.2,10.2,17.4c4.1,4.7,7.8,8.6,12.1,11.5c3.9,2.6,8.8,5.5,13.7,7.1c4.9,1.1,10.4,2.2,16.4,2.2
			l168,1.1v-47.7l-181.8,0v-17l181.8-0.5V65.1l-182.3,0V45.9l182.3,0V4.8l-166.4,0C1693.7,4.8,1686.6,5.9,1680,7.6z"/>
	</g>
</g>
</svg>
